<svg width="273" height="241" viewBox="0 0 273 241" fill="none" xmlns="http://www.w3.org/2000/svg">
<path d="M229.555 50.1582C237.464 50.9272 254.007 48.3787 256.907 32.0332C259.807 15.6876 267.563 11.1618 271.078 10.9421" stroke="#F3603F" stroke-width="3" stroke-linecap="round"/>
<circle cx="159.319" cy="116.831" r="79.0761" fill="#53B175"/>
<g filter="url(#filter0_d_109_2213)">
<circle cx="159.319" cy="116.832" r="68.1416" stroke="white" stroke-opacity="0.7" stroke-width="2"/>
</g>
<path d="M193.997 102.669C193.997 104.894 193.12 107.042 191.524 108.577L154.427 144.334C152.752 145.869 150.518 146.79 148.205 146.79C145.891 146.79 143.657 145.869 142.062 144.334L123.473 126.456C121.878 124.921 121 122.773 121 120.547C121 118.322 121.957 116.25 123.553 114.639C125.228 113.104 127.382 112.26 129.696 112.183C132.009 112.183 134.163 113.027 135.839 114.562L148.205 126.456L179.159 96.6834C180.834 95.1487 182.988 94.3047 185.302 94.3047C187.615 94.3814 189.769 95.2255 191.444 96.8369C193.04 98.3715 193.997 100.443 193.997 102.669Z" fill="white"/>
<path d="M218.526 195.908C225.908 198.04 240.18 206.144 238.212 221.498" stroke="#F7B23B" stroke-width="3" stroke-linecap="round" stroke-linejoin="round"/>
<path d="M2 174.24C13.3283 178.506 37.7503 181.566 44.8122 159.675M44.8122 159.675C45.8421 153.643 44.8123 141.711 32.4542 142.241C30.1002 148.052 29.2762 159.675 44.8122 159.675ZM44.8122 159.675C49.9615 160.631 61.9372 159.719 68.6458 148.42" stroke="#6E89FA" stroke-width="3" stroke-linecap="round" stroke-linejoin="round"/>
<circle cx="181.771" cy="232.727" r="7.57962" fill="#637BFE"/>
<circle cx="253.425" cy="112.7" r="7.07962" stroke="#C05EFD"/>
<circle cx="133.106" cy="8.30033" r="8.30033" fill="#53B175"/>
<circle cx="156.673" cy="22.3102" r="4.38348" fill="#F3603F"/>
<circle cx="60.0587" cy="86.6854" r="7.18199" stroke="#F7B23B"/>
<circle cx="77.7038" cy="207.816" r="7.94695" stroke="#53B175"/>
<circle cx="4.03543" cy="4.03543" r="4.03543" transform="matrix(-1 0 0 1 162.239 220)" fill="#53B175"/>
<defs>
<filter id="filter0_d_109_2213" x="86.1777" y="46.6899" width="146.283" height="146.283" filterUnits="userSpaceOnUse" color-interpolation-filters="sRGB">
<feFlood flood-opacity="0" result="BackgroundImageFix"/>
<feColorMatrix in="SourceAlpha" type="matrix" values="0 0 0 0 0 0 0 0 0 0 0 0 0 0 0 0 0 0 127 0" result="hardAlpha"/>
<feOffset dy="3"/>
<feGaussianBlur stdDeviation="2"/>
<feColorMatrix type="matrix" values="0 0 0 0 0 0 0 0 0 0 0 0 0 0 0 0 0 0 0.12 0"/>
<feBlend mode="normal" in2="BackgroundImageFix" result="effect1_dropShadow_109_2213"/>
<feBlend mode="normal" in="SourceGraphic" in2="effect1_dropShadow_109_2213" result="shape"/>
</filter>
</defs>
</svg>
