<svg width="132" height="170" viewBox="0 0 132 170" fill="none" xmlns="http://www.w3.org/2000/svg">
<path d="M79.9058 74.572L55.231 46L32.0236 75.8748C15.4431 97.2227 30.078 129 56.4992 129C83.6907 129 98.06 95.5891 79.9058 74.572ZM56.4992 121.466C36.6651 121.466 25.6822 97.6156 38.1259 81.5892L55.543 59.1658L74.0691 80.6103C87.6947 96.3887 76.9111 121.466 56.4992 121.466Z" fill="#DFE314"/>
<path d="M85.4584 6.39467C64.7404 11.5131 56.3868 32.7155 54.7997 42.6769C59.3838 29.0005 78.3278 22.7473 87.2267 21.3302C93.9305 18.598 95.5363 14.9346 95.5012 13.4445C95.1505 6.79802 88.6599 5.97524 85.4584 6.39467Z" fill="#12B76A"/>
<path d="M102.001 35.6011C83.0406 25.8057 62.7895 36.2564 55.0339 42.7062C67.4915 35.4353 85.8642 43.2083 93.4934 48.0036C100.337 50.3635 103.958 48.6648 104.913 47.5205C109.027 42.2885 104.686 37.3942 102.001 35.6011Z" fill="#12B76A"/>
<path d="M13.963 164H11.7456C9.55095 164 8.52223 162.926 8.04215 161.76C7.56208 162.308 6.57908 163.086 5.04742 162.994C2.87567 162.88 1.13827 160.96 1.11541 158.948C1.04682 155.336 3.81295 154.056 7.63066 154.033V153.256L10.7168 152.501V159.588C10.7168 160.479 11.2198 160.96 12.0199 160.96H13.963V164ZM7.63066 158.651V155.93C6.05329 155.93 4.133 156.593 4.06442 158.719C4.04156 159.496 4.47591 160.8 5.77896 160.822C6.78482 160.845 7.63066 160.114 7.63066 158.651ZM6.44192 148.912H9.55095V151.564H6.44192V148.912ZM1.91552 148.912H5.02456V151.564H1.91552V148.912ZM16.901 164H13.7691V160.96H16.0323C17.221 160.96 17.8611 160.434 17.8611 159.131V149.186H20.9473V158.742C20.9473 160.091 21.7703 160.96 23.1419 160.96H24.6736V164H23.3248C21.656 164 20.6501 163.223 20.0557 162.4C19.5071 163.36 18.3183 164 16.901 164ZM38.3161 159.405C38.4304 160.251 38.8191 160.96 39.8021 160.96H41.3795V164H39.9621C38.9105 164 37.9275 163.543 37.196 162.971C36.3044 164.274 34.8413 165.234 32.8982 165.234C31.0922 165.234 29.7206 164.411 28.8061 163.291C28.2118 163.703 27.3659 164 26.3143 164H24.4626V160.96H26.1315C26.543 160.96 27.4345 160.708 27.4802 159.588C27.4802 156.845 29.3777 154.033 32.8982 154.033C36.3959 154.033 38.2704 156.799 38.3161 159.405ZM32.8982 162.606C34.5899 162.606 35.1385 161.302 35.1385 159.474C35.1385 157.851 34.5899 156.525 32.8982 156.525C31.2294 156.525 30.6579 157.851 30.6579 159.474C30.6579 161.302 31.2294 162.606 32.8982 162.606ZM45.3674 158.308H42.4641C42.5327 154.787 45.5503 153.233 48.2935 153.233C52.4541 153.233 55.9975 156.593 55.9975 160.96H59.358V164H41.1839V160.96H52.8885C52.9114 158.125 51.1511 155.976 48.2935 155.976C46.7619 155.976 45.5045 156.616 45.3674 158.308ZM46.9447 165.303H50.0538V167.932H46.9447V165.303ZM62.241 164H59.2691V160.96H61.9666C62.7896 160.96 63.2925 160.479 63.2925 159.588V149.186H66.3787V159.405C66.3787 160.708 66.0815 164 62.241 164ZM72.7236 149.186V164H69.6603V149.186H72.7236ZM91.7614 159.359V156.09C89.704 155.77 88.2409 157.325 88.1952 159.428C88.1723 160.205 88.6067 161.508 89.9097 161.531C90.9156 161.554 91.7614 160.822 91.7614 159.359ZM89.9783 163.977H89.9555C89.704 164 89.4297 164.023 89.1782 164C87.0064 163.886 85.2462 161.828 85.2233 159.817C85.1776 156.205 87.3722 152.753 94.8248 154.079V160.274C94.8248 164.937 91.5328 167.932 87.3265 167.932C83.303 167.932 79.9883 164.572 79.9883 160.228C79.9883 158.719 80.0797 157.942 80.4683 156.73H83.6688C83.6688 156.73 82.983 158.125 82.983 160.228C82.983 162.697 85.109 164.846 87.3265 164.846C88.2866 164.846 89.2239 164.526 89.9783 163.977ZM91.3042 149.186H94.4133V151.838H91.3042V149.186ZM86.7778 149.186H89.8869V151.838H86.7778V149.186ZM100.913 167.658L100.113 164.937C100.639 165.097 101.371 165.257 102.102 165.257C102.582 165.257 104.274 165.28 104.822 164H103.108C100.045 164 97.7129 161.714 97.7129 158.788C97.7129 155.93 99.816 153.827 103.108 153.827H108.069V160.96H111.406V164H108C107.589 167.086 104.708 167.978 102.514 167.909C101.965 167.886 101.325 167.772 100.913 167.658ZM104.96 160.96V156.57H103.017C101.668 156.57 100.89 157.736 100.89 158.788C100.89 159.931 101.668 160.96 103.017 160.96H104.96ZM114.258 164H111.286V160.96H113.983C114.806 160.96 115.309 160.479 115.309 159.588V154.536H118.395V159.908C118.441 161.417 119.287 162.285 120.247 162.285C121.756 162.285 122.076 161.142 122.099 160.045V154.536H125.162V159.908C125.208 161.417 126.054 162.285 127.014 162.285C128.523 162.285 128.843 161.142 128.866 160.045V153.85H131.929V160.045C131.929 162.308 131.083 164.457 128.34 164.457C126.785 164.457 125.825 163.84 124.865 162.514C124.431 163.634 122.739 164.457 121.573 164.457C120.019 164.457 118.715 164.091 117.755 162.194C117.207 163.177 116.178 164 114.258 164Z" fill="#DFE314"/>
</svg>
